<svg width="212" height="56" viewBox="0 0 212 56" fill="none" xmlns="http://www.w3.org/2000/svg">
<path d="M72.0801 0.766113C73.0638 0.766113 73.8609 1.56611 73.8609 2.55335C73.8609 3.54058 73.0638 4.34058 72.0801 4.34058C71.0964 4.34058 70.2993 3.54058 70.2993 2.55335C70.2993 1.56611 71.0964 0.766113 72.0801 0.766113Z" fill="white"/>
<path d="M198.771 21.1914C199.755 21.1914 200.552 21.9914 200.552 22.9786C200.552 23.9659 199.755 24.7659 198.771 24.7659C197.787 24.7659 196.99 23.9659 196.99 22.9786C196.99 21.9914 197.787 21.1914 198.771 21.1914Z" fill="white"/>
<path d="M9.1582 1.87222V2.89349C9.1582 2.89349 11.4478 2.46796 12.4654 5.02115L20.1822 24.8509H21.1998L27.7294 8.25519L33.5806 24.8509H34.5134L42.4846 4.68073C42.4846 4.68073 43.5022 2.63817 44.1806 2.89349H45.6222V1.95732H38.1598V2.9786H39.6862C39.6862 2.9786 40.5342 3.23392 40.3646 3.82966V5.27647L34.8526 19.9148L30.019 4.85094C30.1038 4.85094 30.019 3.06371 30.6126 2.9786H32.8174V1.87222H23.4046V2.89349H24.5918L26.5422 5.6169L26.4574 6.38285L21.4542 19.6594L16.2814 5.19136C16.2814 5.19136 15.9422 2.72328 17.2142 2.80839H18.995V1.78711L9.1582 1.87222Z" fill="white"/>
<path d="M46.6401 2.12766V1.10638L51.3889 0H51.9825V11.1489H52.4913C52.4913 11.1489 54.6961 8.93617 56.3073 8.59574C56.3073 8.59574 58.0881 8.08511 60.2929 8.59574C60.2929 8.59574 63.2609 9.70213 63.3457 11.5745V22.0426L64.3633 23.4043H66.1441V24.5106H58.0033V23.4894H59.6993C59.6993 23.4894 60.2929 22.383 60.5473 22.383V12.9362C60.5473 12.9362 59.9537 9.61702 56.1377 10.0426C56.1377 10.0426 53.3393 10.9787 52.5761 13.2766V22.6383L53.4241 23.4894H54.9505V24.5106H46.6401V23.4043H48.1665L49.2689 22.2979V3.57447L48.5057 2.21277L46.6401 2.12766Z" fill="white"/>
<path d="M67.9248 10.8087V9.78739L72.5888 8.76611H73.8608V21.3619C73.8608 21.3619 73.6912 23.7448 74.9632 23.4895H76.6592V24.5959H67.9248V23.5746H69.536C69.536 23.5746 70.4688 23.1491 70.6384 22.2129V11.915C70.6384 11.915 70.2992 10.8938 69.3664 10.8938L67.9248 10.8087Z" fill="white"/>
<path d="M83.0191 5.78711V9.36158H87.2591V10.7233H83.0191V21.2765C82.9343 23.4041 84.2063 23.8297 86.1567 23.319C86.1567 23.319 87.1743 22.8935 87.6831 22.0424C87.6831 22.0424 88.5311 22.468 88.3615 23.0637C88.3615 23.0637 86.9199 24.6807 85.5631 24.8509H83.0191C83.0191 24.8509 82.0863 24.7658 80.9839 23.9148C80.6447 23.6594 80.2207 22.3829 80.2207 22.2126V10.8084H78.4399V9.702C78.4399 9.702 78.5247 9.6169 78.6943 9.53179C79.4575 9.02115 81.7471 7.57434 83.0191 5.78711Z" fill="white"/>
<path d="M93.7038 15.1488H104.643C104.813 14.3829 104.982 12.6808 104.134 11.1488C102.608 8.42544 99.2158 8.34033 98.283 8.34033C97.3502 8.34033 95.6542 8.34033 93.9582 9.44672C91.5838 11.0637 90.9902 13.702 90.9054 14.2978C90.7358 15.1488 90.3966 17.4467 91.1598 19.4893C91.3294 19.9999 91.5838 20.5105 91.5838 20.5105C91.923 21.2765 92.5166 22.1276 93.3646 22.8935C93.7886 23.3191 95.2302 24.5956 97.3502 24.9361C100.064 25.3616 103.371 24.2552 104.728 21.9574C104.728 21.8722 104.813 21.8722 104.813 21.8722C104.558 21.702 104.219 21.4467 103.88 21.1914C102.438 23.1488 100.064 23.9999 97.9438 23.4042C95.3998 22.7233 93.619 20.1701 93.7886 17.2765L93.8734 14.2978C94.6366 12.3403 95.0606 11.7446 95.0606 11.7446C95.315 11.4042 95.6542 11.0637 96.163 10.6382C96.587 10.468 97.2654 10.1276 98.1982 10.1276C98.7918 10.1276 100.488 10.1276 101.166 11.4042C101.675 12.3403 101.336 13.3616 101.251 13.702C94.9758 13.5318 91.7534 13.6169 91.6686 14.1276C91.5838 14.468 92.2622 14.7233 93.7038 15.1488Z" fill="white"/>
<path d="M127.658 3.50635C125.962 3.50635 123.376 5.14039 126.301 10.9021C128.413 9.49784 129.956 7.93188 129.668 6.04252C129.583 5.36167 129.583 4.59571 128.735 3.82975C128.54 3.63401 128.133 3.50635 127.667 3.50635M136.452 25.0212C136.028 24.9361 135.095 24.851 135.095 24.851C135.095 24.851 133.001 24.2638 130.813 21.7532C130.83 21.7361 130.838 21.7191 130.855 21.7021L130.601 21.4468L130.516 21.2766C130.516 21.2766 130.177 20.851 129.922 20.5957C129.905 20.5787 129.888 20.5617 129.871 20.5446L129.837 20.5787L124.385 13.9915L124.232 13.7872L124.139 13.6936L123.723 13.1915L123.639 13.1063L123.554 13.0212C123.554 13.0212 123.494 12.9532 123.469 12.9106C123.469 12.8851 123.444 12.868 123.427 12.851C123.418 12.834 123.401 12.817 123.393 12.8C123.393 12.8 123.393 12.7829 123.393 12.7744L123.35 12.7319C123.35 12.7319 123.325 12.6978 123.316 12.6808C123.333 12.6808 123.35 12.6638 123.359 12.6553C123.342 12.6383 123.316 12.6212 123.299 12.6042C123.291 12.6042 123.282 12.6127 123.274 12.6212C122.053 10.5446 119.568 3.19996 125.504 1.7106C125.504 1.7106 126.166 1.50635 127.073 1.50635C128.498 1.50635 130.55 2.01699 131.695 4.60422C132.034 5.45528 132.034 6.39145 131.695 7.32762C131.695 7.32762 130.253 10.9021 127.115 12.0936L131.762 18.1532L131.779 18.1361L131.949 17.8808L135.171 13.5404C135.171 13.5404 135.765 11.9234 134.578 11.9234L133.56 11.8383V10.9021H140.429V11.9234C140.429 11.9234 140.209 11.8978 139.895 11.8978C139.267 11.8978 138.25 12.0085 137.8 12.6893L133.051 19.4127C133.051 19.4127 131.525 20.1787 136.952 22.9021C136.952 22.9021 137.546 23.234 138.275 23.234C139.004 23.234 139.912 22.8851 140.429 21.4553L140.938 21.3702C140.938 21.3702 141.786 23.0723 138.055 24.8595C137.546 24.9446 137.037 24.9446 136.443 25.0298M123.562 25.2936C117.499 25.2936 113.556 18.2723 123.265 12.6127C123.282 12.6383 123.291 12.6553 123.299 12.6723C123.299 12.6723 123.299 12.6723 123.291 12.6723L123.333 12.7149C123.333 12.7149 123.367 12.7659 123.376 12.7829C123.376 12.8085 123.393 12.817 123.41 12.834C123.427 12.851 123.435 12.8766 123.452 12.8936C123.452 12.8936 123.452 12.9106 123.452 12.9191C123.537 13.0893 123.706 13.2595 123.706 13.2595L123.876 13.4298L124.046 13.6L124.122 13.6766L124.368 13.9744L124.47 14.1106C124.47 14.1106 120.908 17.7702 121.332 20.1532C121.502 21.3446 122.519 22.7063 123.961 23.0468C124.249 23.1149 124.554 23.1574 124.877 23.1574C126.403 23.1574 128.141 22.3319 129.473 20.9191L129.821 20.5617L130.745 21.6851C130.745 21.6851 130.77 21.7191 130.787 21.7361C128.489 24.2553 125.869 25.2766 123.554 25.2766" fill="white"/>
<path d="M172.059 8.68099C172.059 8.68099 171.466 5.36184 168.158 3.74482C167.734 3.57461 166.462 2.97886 165.275 2.97886C164.597 2.97886 163.834 3.06397 163.325 3.23418C162.731 3.40439 162.307 3.4895 162.307 3.4895C162.307 3.4895 159.17 3.74482 157.304 9.70227C156.965 10.2129 156.371 13.3618 156.965 16.5108C157.643 19.8299 159.678 23.1491 162.816 23.2342C163.834 23.6597 172.314 22.5533 172.314 18.0427V17.3618H173.84V24.8512H172.738L172.059 22.6384C168.837 24.9363 165.19 25.7023 161.29 25.1065C161.29 25.1065 153.149 23.1491 152.894 15.6597C152.894 15.6597 152.81 12.5108 153.403 10.1278C153.403 10.1278 156.965 -3.40412 171.55 3.82993L172.144 2.04269H173.162V8.8512L172.059 8.68099Z" fill="white"/>
<path d="M184.779 10.383C181.981 10.383 180.709 13.3617 180.624 16.5106C180.539 20.2553 182.32 24.1702 186.56 23.3192C187.069 23.2341 188.51 22.8085 189.528 21.1915C190.037 20.3404 190.376 18.5532 190.461 17.617C190.63 16.2553 190.461 14.8936 189.867 13.7021C189.104 12.0851 187.832 10.6383 186.645 10.383L182.744 9.10639C182.744 9.10639 187.069 8.42554 189.528 9.87235C192.75 12.1702 194.192 15.0638 193.598 18.4681C193.598 18.4681 193.089 23.4043 187.238 24.9362C186.56 25.3617 184.27 25.3617 182.235 24.5958C180.539 24 178.928 22.9787 178.08 21.1915C175.96 16.9362 176.723 9.27661 184.44 8.85107C184.44 8.85107 192.072 10.8936 188.086 10.6383C187.069 10.5532 186.39 10.2979 186.051 10.2979C184.949 10.2128 187.662 10.383 187.662 10.383" fill="white"/>
<path d="M212 32.5107H0V33.7873H212V32.5107Z" fill="white"/>
<path d="M212 34.7236H0V36.0002H212V34.7236Z" fill="white"/>
<path d="M10.0062 48.8509L10.1758 49.1913L11.5326 49.702H13.8222L18.0622 54.2977L19.5038 54.4679L19.7582 55.0637L16.451 55.1488L12.0414 49.9573L10.4302 48.936V47.9147L10.515 46.1275L10.7694 45.2764V43.8296C10.7694 43.8296 13.6526 43.5743 14.4158 44.17C16.027 45.5318 15.7726 48.3403 13.059 48.936H10.515L10.3454 49.6169H13.907V49.3615H13.9918C20.3518 48.5956 16.6206 42.8935 14.1614 43.2339H7.46225V43.9147H8.05585C8.90385 43.8296 9.24305 44.6807 9.24305 44.6807V53.702C9.24305 54.6381 8.31025 54.7232 8.31025 54.7232H7.46225L7.12305 55.2339H12.9742V54.8083H11.7022C11.1086 54.7232 10.7694 54.2977 10.6846 53.702V43.6594" fill="white"/>
<path d="M10.2606 43.7446L10.1758 44.5957L10.3454 45.7021L10.515 45.4468" fill="white"/>
<path d="M27.645 43.2339H37.2274V45.9573C37.2274 45.9573 36.549 44.3403 35.0226 43.9998H31.2914V48.5956H33.0722C33.0722 48.5956 34.2594 48.3403 34.3442 46.8935L34.853 46.8084V50.9786H34.3442C34.3442 50.9786 34.0898 49.1062 33.0722 49.3615L31.3762 49.4467L31.461 53.1913L31.5458 54.2126H35.1074C35.6162 54.2977 38.245 52.4254 37.821 52.2552V55.0637H27.645V54.7233H28.8322C28.8322 54.7233 29.5106 54.4679 29.5106 54.2977V44.5956C29.5954 44.2552 28.917 43.8296 28.917 43.8296H27.645V43.2339Z" fill="white"/>
<path d="M98.5376 43.2339H108.12V45.9573C108.12 45.9573 107.442 44.3403 105.915 43.9998H102.184V48.5956H103.965C103.965 48.5956 105.152 48.3403 105.237 46.8935L105.746 46.8084V50.9786H105.237C105.237 50.9786 104.982 49.1062 103.88 49.3615L102.184 49.4467L102.269 53.1913L102.354 54.2126H105.915C106.424 54.2977 109.053 52.4254 108.629 52.2552V55.0637H98.7072V54.7233H99.8944C99.8944 54.7233 100.573 54.4679 100.573 54.2977V44.5956C100.658 44.2552 99.9792 43.8296 99.9792 43.8296H98.7072L98.5376 43.2339Z" fill="white"/>
<path d="M194.871 43.2339H204.453V45.9573C204.453 45.9573 203.775 44.3403 202.248 43.9998H198.517V48.5956H200.298C200.298 48.5956 201.485 48.3403 201.57 46.8935L202.079 46.8084V50.9786H201.57C201.57 50.9786 201.315 49.1062 200.213 49.3615L198.517 49.4467L198.602 53.1913L198.687 54.2126H202.248C202.757 54.2977 205.386 52.4254 204.962 52.2552V55.0637H195.04V54.7233H196.227C196.227 54.7233 196.906 54.4679 196.906 54.2977V44.5956C196.991 44.2552 196.312 43.8296 196.312 43.8296H195.04L194.871 43.2339Z" fill="white"/>
<path d="M50.3713 50.1277H54.0177L52.3217 45.8724L50.3713 50.1277ZM53.5089 55.2341V54.8937C53.6022 54.9107 53.687 54.9192 53.7803 54.9192C54.2043 54.9192 54.6283 54.766 55.1201 54.5532C55.2049 54.4681 55.2897 54.383 55.2897 54.2128V53.9575L54.1025 50.9788H50.1169L48.8449 53.7873C48.5397 54.4766 48.9891 54.8171 49.9473 54.8171C50.0491 54.8171 50.1678 54.8171 50.2865 54.8001V55.1405H46.1313V54.8001H46.8945C46.8945 54.8001 47.4033 54.6298 47.7425 53.949L49.5233 50.1192L52.1521 43.2256H52.6609L56.9009 53.949C57.1893 54.5277 57.715 54.732 58.4358 54.732C58.5715 54.732 58.7072 54.732 58.8513 54.7149V55.1405L53.5089 55.2256" fill="white"/>
<path d="M158.661 50.1277H162.307L160.611 45.8724L158.661 50.1277ZM161.798 55.2341V54.8937C161.892 54.9107 161.977 54.9192 162.07 54.9192C162.494 54.9192 162.918 54.766 163.41 54.5532C163.494 54.4681 163.579 54.383 163.579 54.2128V53.9575L162.392 50.9788H158.406L157.134 53.7873C156.829 54.4766 157.279 54.8171 158.237 54.8171C158.339 54.8171 158.457 54.8171 158.576 54.8001V55.1405H154.421V54.8001H155.184C155.099 54.8001 155.693 54.6298 156.032 53.949L157.813 50.1192L160.442 43.2256H160.95L165.19 53.949C165.479 54.5277 166.005 54.732 166.725 54.732C166.861 54.732 166.997 54.732 167.141 54.7149V55.1405L161.798 55.2256" fill="white"/>
<path d="M72.165 43.2339V43.9147H71.1474C71.1474 43.9147 70.6386 44.2552 70.7234 44.7658V53.4467C70.7234 53.4467 70.6386 54.3828 71.317 54.3828H75.2178C75.2178 54.3828 76.2354 54.4679 76.6594 53.3615L77.0834 52.3403H77.4226V55.2339H67.2466V54.8935H68.2642C68.2642 54.8935 68.9426 54.7232 69.0274 54.0424V44.6807C69.0274 44.6807 68.9426 43.9147 68.349 43.9147H67.3314V43.2339H72.165Z" fill="white"/>
<path d="M125.08 43.4045H125.759V46.4683H124.995C124.995 46.213 124.911 45.7875 124.656 45.2768C124.571 45.1917 124.487 44.8513 124.147 44.596C123.384 43.9151 121.943 43.7449 121.01 44.5109C120.501 44.8513 120.247 45.3619 120.162 45.7024V46.2981C120.162 46.2981 120.077 47.3194 123.13 48.4258C123.384 48.5109 125.335 49.0215 126.183 50.8939C126.522 51.7449 126.522 52.5109 126.522 52.9364C126.437 53.3619 126.183 53.9577 125.589 54.5534C125.25 54.979 124.826 55.2343 124.571 55.4896C122.791 56.596 120.671 55.5747 120.416 55.4896C120.077 55.3194 119.568 54.979 119.059 54.5534V55.3194H118.211V51.7449H118.805C118.805 51.7449 118.805 54.0428 121.434 54.7236L122.96 54.8087C123.13 54.8087 123.384 54.7236 123.639 54.6385C124.317 54.2981 124.487 53.7024 124.571 53.5322C124.656 53.1066 124.741 52.2556 124.232 51.5747C123.893 51.0641 123.469 50.8087 122.536 50.4683C121.264 49.8726 120.925 49.9577 120.162 49.5322C119.653 49.2768 119.059 48.7662 118.466 47.7449C118.381 47.2343 118.296 46.213 118.805 45.2768C118.975 44.9364 119.229 44.6811 119.314 44.5109C119.823 43.9151 120.416 43.5747 120.755 43.4896C122.282 42.8087 123.723 43.6598 123.978 43.7449C124.317 43.9151 124.741 44.2556 124.741 44.2556L124.995 44.5109V43.4045H125.08Z" fill="white"/>
<path d="M135.595 46.5532V43.4043H147.637V46.5532H146.958C146.958 46.5532 146.704 44.1703 145.686 44.1703L143.142 44.0851L142.718 44.5958C142.718 47.9149 142.634 51.2341 142.634 54.4681C142.718 54.5532 142.803 54.7234 142.973 54.8086C143.227 54.9788 143.482 54.8937 143.566 54.8937H144.754V55.4043H138.563V54.8937H139.835C140.174 54.8937 140.344 54.8085 140.429 54.6383C140.429 54.5532 140.514 54.383 140.514 54.383C140.514 54.383 140.683 44.9362 140.683 44.3405C140.683 44.2554 140.598 44.1703 140.429 44.0851C140.259 44 140.09 44 140.005 44H137.8C137.63 44.0851 137.376 44.1703 137.122 44.3405C136.613 44.766 136.358 45.3617 136.358 45.6171V46.383L135.595 46.5532Z" fill="white"/>
<path d="M173.84 46.5532V43.4043H185.881V46.5532H185.203C185.203 46.5532 184.949 44.1703 183.931 44.1703L181.387 44.0851L180.963 44.5958C180.963 47.9149 180.878 51.2341 180.878 54.4681C180.963 54.5532 181.048 54.7234 181.217 54.8086C181.472 54.9788 181.726 54.8937 181.811 54.8937H182.998V55.4043H176.808V54.8937H178.08C178.419 54.8937 178.589 54.8085 178.673 54.6383C178.673 54.5532 178.758 54.383 178.758 54.383C178.758 54.383 178.928 44.9362 178.928 44.3405C178.928 44.2554 178.843 44.1703 178.673 44.0851C178.504 44 178.334 44 178.249 44H176.045C175.875 44.0851 175.621 44.1703 175.366 44.3405C174.857 44.766 174.603 45.3617 174.603 45.6171V46.383L173.84 46.5532Z" fill="white"/>
</svg>
